<svg width="480" height="480" xmlns="http://www.w3.org/2000/svg">

 <g>
  <title>background</title>
  <rect fill="none" id="canvas_background" height="482" width="482" y="-1" x="-1"/>
 </g>
 <g>
  <title>Layer 1</title>
  <path fill="#ffffff" id="svg_12" d="m310.5,260.9l0,-165.6c0,-23 -15.3,-41.6 -34.2,-41.6l-69,0c-18.9,0 -34.2,18.6 -34.2,41.6l0,165.6l137.4,0l0,0z" class="st3"/>
  <path fill="#ffffff" id="svg_13" d="m173,261.3l0,159.6c0,22.2 15.3,40.1 34.2,40.1l69,0c18.9,0 34.2,-18 34.2,-40.1l0,-159.6l-137.4,0z" class="st3"/>
  <path fill="#3769a5" id="svg_14" d="m340.6,260.9l0,-165.6c0,-23 -15.3,-41.6 -34.2,-41.6l-69,0c-18.9,0 -34.2,18.6 -34.2,41.6l0,165.6l137.4,0l0,0z" class="st4"/>
  <path fill="#cf316a" id="svg_15" d="m203.1,261.3l0,159.6c0,22.2 15.3,40.1 34.2,40.1l69,0c18.9,0 34.2,-18 34.2,-40.1l0,-159.6l-137.4,0z" class="st5"/>
  <path fill="#4e9bd4" id="svg_16" d="m316.4,260.9l0,-165.6c0,-23 -14.3,-41.6 -31.9,-41.6l-64.3,0c-17.6,0 -31.9,18.6 -31.9,41.6l0,165.6l128.1,0l0,0z" class="st2"/>
  <path fill="#ff6b92" id="svg_17" d="m188.2,261.3l0,159.6c0,22.2 14.3,40.1 31.9,40.1l64.3,0c17.6,0 31.9,-18 31.9,-40.1l0,-159.6l-128.1,0z" class="st6"/>
  <path fill="#ee3c7a" id="svg_18" d="m188.2,416.4l0,4.5c0,22.2 14.3,40.1 31.9,40.1l64.3,0c17.6,0 31.9,-18 31.9,-40.1l0,-4.5l-128.1,0z" class="st7"/>
  <path fill="#4077bb" id="svg_19" d="m316.4,98.2l0,-4.5c0,-22.2 -14.3,-40.1 -31.9,-40.1l-64.3,0c-17.6,0 -31.9,18 -31.9,40.1l0,4.5l128.1,0z" class="st8"/>
  <path fill="#ffffff" id="svg_20" d="m205.5,387.1c-1.9,0 -3.5,-1.6 -3.5,-3.5l0,-32.7c0,-1.9 1.6,-3.5 3.5,-3.5s3.5,1.6 3.5,3.5l0,32.7c0,1.9 -1.6,3.5 -3.5,3.5z" class="st3"/>
  <path id="svg_22" d="m340.2,356.8c-3.3,0 -6,2.7 -6,6l0,56.5c0,19.6 -16,35.6 -35.6,35.6l-83.9,0c-19.6,0 -35.6,-16 -35.6,-35.6l0,-197.1c0,-3.3 -2.7,-6 -6,-6s-6,2.7 -6,6l0,197.1c0,26.2 21.4,47.6 47.6,47.6l83.9,0c26.2,0 47.6,-21.4 47.6,-47.6l0,-56.5c0,-3.3 -2.7,-6 -6,-6z"/>
  <path id="svg_23" d="m173,165.6c3.3,0 6,-2.7 6,-6l0,-65.3c0,-19.6 16,-35.6 35.6,-35.6l83.9,0c19.6,0 35.6,16 35.6,35.6l0,160.8l-145.5,0c-3.3,0 -6,2.7 -6,6s2.7,6 6,6l145.5,0l0,82.2c0,3.3 2.7,6 6,6s6,-2.7 6,-6l0,-87.1c0.1,-0.3 0.1,-0.7 0.1,-1.1s0,-0.7 -0.1,-1.1l0,-165.7c0,-26.2 -21.4,-47.6 -47.6,-47.6l-83.9,0c-26.2,0 -47.6,21.4 -47.6,47.6l0,65.3c0,3.3 2.7,6 6,6z"/>
  <path id="svg_24" d="m173,212.7c3.3,0 6,-2.7 6,-6l0,-30.5c0,-3.3 -2.7,-6 -6,-6s-6,2.7 -6,6l0,30.5c0,3.3 2.7,6 6,6z"/>
  <path fill="#ffffff" id="svg_25" d="m205.5,108.8c-1.9,0 -3.5,-1.6 -3.5,-3.5c0,-15.5 12.6,-28.1 28.1,-28.1c1.9,0 3.5,1.6 3.5,3.5s-1.6,3.5 -3.5,3.5c-11.6,0 -21.1,9.5 -21.1,21.1c0,1.9 -1.6,3.5 -3.5,3.5z" class="st3"/>
  <path fill="#ffffff" id="svg_26" d="m205.5,127.2c-1.9,0 -3.5,-1.6 -3.5,-3.5l0,-5.5c0,-1.9 1.6,-3.5 3.5,-3.5s3.5,1.6 3.5,3.5l0,5.5c0,1.9 -1.6,3.5 -3.5,3.5z" class="st3"/>
 </g>
</svg>