<svg width="48" height="48" xmlns="http://www.w3.org/2000/svg">

 <g>
  <title>background</title>
  <rect fill="none" id="canvas_background" height="402" width="582" y="-1" x="-1"/>
 </g>
 <g>
  <title>Layer 1</title>
  <path id="svg_3" d="m13,48c-0.553,0 -1,-0.448 -1,-1l0,-46c0,-0.552 0.447,-1 1,-1s1,0.448 1,1l0,46c0,0.552 -0.447,1 -1,1z"/>
  <path id="svg_5" d="m24,48c-0.553,0 -1,-0.448 -1,-1l0,-46c0,-0.552 0.447,-1 1,-1s1,0.448 1,1l0,46c0,0.552 -0.447,1 -1,1z"/>
  <path id="svg_7" d="m35,48c-0.553,0 -1,-0.448 -1,-1l0,-46c0,-0.552 0.447,-1 1,-1s1,0.448 1,1l0,46c0,0.552 -0.447,1 -1,1z"/>
  <path id="svg_9" d="m47,14l-46,0c-0.553,0 -1,-0.448 -1,-1s0.447,-1 1,-1l46,0c0.553,0 1,0.448 1,1s-0.447,1 -1,1z"/>
  <path id="svg_11" d="m47,25l-46,0c-0.553,0 -1,-0.448 -1,-1s0.447,-1 1,-1l46,0c0.553,0 1,0.448 1,1s-0.447,1 -1,1z"/>
  <path id="svg_13" d="m47,36l-46,0c-0.553,0 -1,-0.448 -1,-1s0.447,-1 1,-1l46,0c0.553,0 1,0.448 1,1s-0.447,1 -1,1z"/>
 </g>
</svg>