<svg width="64" height="64" xmlns="http://www.w3.org/2000/svg">

 <g>
  <title>background</title>
  <rect fill="none" id="canvas_background" height="402" width="582" y="-1" x="-1"/>
 </g>
 <g>
  <title>Layer 1</title>
  <circle id="svg_1" r="32" fill="#f8f9fa" cy="32" cx="32"/>
  <path id="svg_2" opacity="0.2" fill="#231F20" d="m37.235,25.286c1.041,0.885 2.029,1.788 2.917,2.74l-14.999,14.999c-0.165,0.165 -0.682,0.487 -1.37,0.651l-0.013,0.003l-0.031,0.007c-0.096,0.022 -0.191,0.041 -0.287,0.053l-0.141,0.018l-0.139,0.032c-0.274,0.062 -0.577,0.144 -0.899,0.252l-1.265,0.305l0.4,-1.673c0.07,-0.223 0.127,-0.433 0.171,-0.627l0.025,-0.108l0.017,-0.11c0.011,-0.074 0.025,-0.147 0.042,-0.22l0.007,-0.03l0.003,-0.013c0.165,-0.688 0.487,-1.204 0.651,-1.369l14.911,-14.91m-0.198,-4.044l-16.833,16.833c-0.639,0.639 -1.185,1.696 -1.447,2.792l-0.01,-0.007c0,0 -0.002,0.031 -0.008,0.087c-0.032,0.141 -0.059,0.282 -0.08,0.423c-0.155,0.671 -0.595,1.918 -1.868,3.191l0,0l-0.884,0.884c-1.074,1.074 -1.301,2.588 -0.507,3.382l1.014,1.014c0.32,0.32 0.756,0.474 1.234,0.474c0.708,0 1.507,-0.339 2.149,-0.981l0.884,-0.884c1.126,-1.126 2.407,-1.564 3.16,-1.735c0.188,-0.024 0.375,-0.06 0.563,-0.102c0.054,-0.006 0.088,-0.009 0.088,-0.009l-0.009,-0.01c1.097,-0.262 2.154,-0.808 2.794,-1.448l16.92,-16.919c-1.935,-2.709 -4.552,-4.893 -7.16,-6.985l0,0z"/>
  <path id="svg_4" fill="#E0E0D1" d="m37.235,23.286c1.041,0.885 2.029,1.788 2.917,2.74l-14.999,14.999c-0.165,0.165 -0.682,0.487 -1.37,0.651l-0.013,0.003l-0.031,0.007c-0.096,0.022 -0.191,0.041 -0.287,0.053l-0.142,0.018l-0.139,0.032c-0.274,0.062 -0.576,0.144 -0.899,0.251l-1.266,0.305l0.4,-1.672c0.071,-0.223 0.127,-0.434 0.172,-0.628l0.025,-0.109l0.017,-0.11c0.011,-0.073 0.025,-0.145 0.041,-0.218l0.008,-0.035l0.002,-0.009c0.165,-0.688 0.487,-1.205 0.651,-1.369l14.913,-14.909m-0.198,-4.044l-16.833,16.833c-0.639,0.639 -1.185,1.696 -1.447,2.792l-0.01,-0.007c0,0 -0.002,0.031 -0.008,0.086c-0.032,0.141 -0.059,0.282 -0.08,0.423c-0.155,0.671 -0.595,1.918 -1.868,3.191l0,0l-0.884,0.884c-1.074,1.074 -1.301,2.588 -0.507,3.382l1.014,1.014c0.32,0.32 0.756,0.474 1.234,0.474c0.708,0 1.507,-0.339 2.149,-0.981l0.884,-0.884c1.126,-1.126 2.407,-1.564 3.16,-1.735c0.188,-0.024 0.375,-0.06 0.563,-0.102c0.054,-0.006 0.088,-0.009 0.088,-0.009l-0.009,-0.01c1.097,-0.262 2.154,-0.808 2.794,-1.448l16.92,-16.919c-1.935,-2.708 -4.552,-4.892 -7.16,-6.984l0,0z"/>
  <path id="svg_5" opacity="0.2" fill="#231F20" d="m43.9,27.193l5.207,-5.207c1.057,-1.057 0.95,-2.879 -0.239,-4.068l-1.436,-1.436c-1.189,-1.189 -3.011,-1.296 -4.068,-0.239l-5.286,5.286c2.101,1.72 4.187,3.512 5.822,5.664z"/>
  <path id="svg_6" opacity="0.2" fill="#231F20" d="m45.604,30.949c-0.781,0.781 -2.121,2.121 -2.121,2.121l-11.314,-11.314c0,0 1.34,-1.34 2.121,-2.121l1.414,-1.414c0.781,-0.781 2.047,-0.781 2.828,0l8.485,8.485c0.781,0.781 0.781,2.047 0,2.828l-1.413,1.415z"/>
  <path id="svg_7" fill="#4F5D73" d="m43.9,25.193l5.207,-5.207c1.057,-1.057 0.95,-2.879 -0.239,-4.068l-1.436,-1.436c-1.189,-1.189 -3.011,-1.296 -4.068,-0.239l-5.286,5.286c2.101,1.72 4.187,3.512 5.822,5.664z"/>
  <path id="svg_8" fill="#4F5D73" d="m45.604,28.949c-0.781,0.781 -2.121,2.121 -2.121,2.121l-11.314,-11.314c0,0 1.34,-1.34 2.121,-2.121l1.414,-1.414c0.781,-0.781 2.047,-0.781 2.828,0l8.485,8.485c0.781,0.781 0.781,2.047 0,2.828l-1.413,1.415z"/>
 </g>
</svg>