<svg width="128" height="128" xmlns="http://www.w3.org/2000/svg">
 <title/>

 <g>
  <title>background</title>
  <rect fill="none" id="canvas_background" height="402" width="582" y="-1" x="-1"/>
 </g>
 <g>
  <title>Layer 1</title>
  <path id="svg_1" d="m104.21,52.64a2,2 0 0 0 -2.8,0.39l-4.71,6.22a33,33 0 1 0 -1.31,15.11a2,2 0 0 0 -3.8,-1.26a29.06,29.06 0 1 1 1.21,-12.79l-6.8,-5.15a2,2 0 1 0 -2.42,3.18l10.36,7.85a2,2 0 0 0 1.21,0.41l0.27,0a2,2 0 0 0 1.32,-0.77l7.85,-10.36a2,2 0 0 0 -0.38,-2.83z"/>
  <path id="svg_2" d="m64,0a64,64 0 1 0 64,64a64.07,64.07 0 0 0 -64,-64zm0,124a60,60 0 1 1 60,-60a60.07,60.07 0 0 1 -60,60z"/>
 </g>
</svg>